<svg viewBox="0 0 282 55" xmlns="http://www.w3.org/2000/svg"><path d="M19.88 42.014c-12.049 0-18.525-3.972-18.525-15.66 0-11.84 8.284-12.604 17.621-12.604 8.133 0 12.199.917 15.136 6.646L31.1.764h-9.714C12.576.764 0 5.347 0 28.264 0 51.486 11.521 55 19.578 55c6.702 0 15.136-3.285 15.136-14.132V33.84c-.828 5.653-6.852 8.174-14.834 8.174z"></path><path d="M67.239 40.944V14.056c0-7.868.903-11.23 6.551-13.292H59.181c5.648 2.062 6.552 5.423 6.552 13.292v5.729h-26.13v-5.73c0-7.867.904-11.229 6.551-13.291H31.546c5.647 2.062 6.55 5.423 6.55 13.292v26.888c0 7.868-.903 11.23-6.55 13.292h14.608c-5.647-2.062-6.551-5.423-6.551-13.292v-5.882h26.13v5.882c0 7.868-.904 11.23-6.552 13.292h14.61c-5.649-2.062-6.552-5.423-6.552-13.292z"></path><path d="M88.837 0c-7.304 0-19.88 4.507-19.88 27.5 0 23.07 12.576 27.5 19.88 27.5 7.304 0 19.88-4.43 19.88-27.5 0-22.993-12.576-27.5-19.88-27.5zm-.904 40.868c-9.337 0-17.696-.687-17.696-11.458 0-12.834 7.079-15.278 19.504-15.278 9.337 0 17.696.687 17.696 11.458 0 12.834-7.079 15.278-19.504 15.278z"></path><path d="M139.353 17.111C139.277 3.208 128.811.764 123.991.764h-20.105c5.647 2.062 6.551 5.423 6.551 13.292v26.888c0 7.868-.904 11.23-6.551 13.292h14.608c-5.648-2.062-6.551-5.423-6.551-13.292v-3.59h7.605c10.543 0 19.805-7.028 19.805-20.243zm-1.506 1.146c0 5.882-4.895 8.48-12.049 8.48-4.819 0-8.81-.841-13.855-2.293V12.986h17.922c5.497 0 7.982.764 7.982 5.27zM162.527 42.014c-12.048 0-18.524-3.972-18.524-15.66 0-11.84 8.283-12.604 17.62-12.604 8.133 0 12.199.917 15.136 6.646L173.747.764h-9.714c-8.81 0-21.386 4.583-21.386 27.5 0 23.222 11.521 26.736 19.579 26.736 6.702 0 15.135-3.285 15.135-14.132V33.84c-.828 5.653-6.852 8.174-14.834 8.174z"></path><path d="M209.886 40.944V14.056c0-7.868.904-11.23 6.551-13.292h-14.608c5.647 2.062 6.551 5.423 6.551 13.292v5.729h-26.13v-5.73c0-7.867.904-11.229 6.551-13.291h-14.608c5.648 2.062 6.551 5.423 6.551 13.292v26.888c0 7.868-.903 11.23-6.551 13.292h14.608c-5.647-2.062-6.551-5.423-6.551-13.292v-5.882h26.13v5.882c0 7.868-.904 11.23-6.551 13.292h14.608c-5.647-2.062-6.551-5.423-6.551-13.292z"></path><path d="M231.484 0c-7.304 0-19.88 4.507-19.88 27.5 0 23.07 12.576 27.5 19.88 27.5 7.304 0 19.88-4.43 19.88-27.5 0-22.993-12.576-27.5-19.88-27.5zm-.903 40.868c-9.338 0-17.696-.687-17.696-11.458 0-12.834 7.078-15.278 19.503-15.278 9.337 0 17.696.687 17.696 11.458 0 12.834-7.079 15.278-19.503 15.278z"></path><path d="M282 17.111C281.925 3.208 271.458.764 266.638.764h-20.105c5.647 2.062 6.551 5.423 6.551 13.292v26.888c0 7.868-.904 11.23-6.551 13.292h14.608c-5.647-2.062-6.551-5.423-6.551-13.292v-3.59h7.606c10.542 0 19.804-7.028 19.804-20.243zm-1.506 1.146c0 5.882-4.895 8.48-12.048 8.48-4.82 0-8.811-.841-13.856-2.293V12.986h17.922c5.497 0 7.982.764 7.982 5.27z"></path></svg>