<svg viewBox="0 0 367 60" xmlns="http://www.w3.org/2000/svg"><path d="M126.511 16.438c-3.513 0-6.291 1.213-8.33 3.642-2.026 2.413-3.041 5.724-3.041 9.932 0 4.328.978 7.677 2.931 10.044 1.967 2.353 4.765 3.529 8.396 3.529 2.23 0 4.772-.415 7.629-1.245v3.371c-2.215.859-4.949 1.289-8.197 1.289-4.708 0-8.345-1.477-10.91-4.434-2.55-2.955-3.826-7.156-3.826-12.6 0-3.408.614-6.394 1.837-8.959 1.238-2.564 3.017-4.539 5.335-5.926 2.331-1.387 5.071-2.081 8.22-2.081 3.351 0 6.281.633 8.789 1.9l-1.575 3.303c-2.421-1.177-4.84-1.765-7.258-1.765zM159.524 34.478c0 3.932-.95 7.006-2.852 9.221C154.769 45.9 152.142 47 148.79 47c-2.071 0-3.909-.505-5.515-1.518-1.606-1.014-2.846-2.465-3.72-4.358-.874-1.892-1.31-4.108-1.31-6.646 0-3.931.944-6.99 2.832-9.177 1.887-2.2 4.508-3.301 7.861-3.301 3.239 0 5.811 1.122 7.713 3.367 1.915 2.245 2.873 5.283 2.873 9.111zm-17.644 0c0 3.081.592 5.428 1.775 7.042 1.184 1.614 2.923 2.422 5.22 2.422 2.295 0 4.035-.8 5.218-2.399 1.198-1.613 1.795-3.968 1.795-7.064 0-3.066-.597-5.392-1.795-6.976-1.183-1.6-2.938-2.399-5.261-2.399-2.295 0-4.029.785-5.199 2.355-1.168 1.569-1.753 3.909-1.753 7.02zM194.721 47V31.029c0-1.957-.393-3.421-1.179-4.39-.786-.986-2.005-1.48-3.66-1.48-2.174 0-3.781.666-4.818 1.995-1.038 1.328-1.557 3.375-1.557 6.137V47h-3.493V31.029c0-1.957-.393-3.421-1.179-4.39-.785-.986-2.014-1.48-3.682-1.48-2.188 0-3.794.703-4.818 2.107-1.009 1.388-1.514 3.673-1.514 6.853V47h-3.494V22.45h2.842l.568 3.36h.167a7.087 7.087 0 0 1 2.778-2.8c1.206-.673 2.553-1.009 4.039-1.009 3.605 0 5.961 1.39 7.07 4.166h.168c.686-1.285 1.684-2.3 2.988-3.047 1.304-.746 2.792-1.12 4.46-1.12 2.609 0 4.56.717 5.849 2.15 1.306 1.42 1.957 3.697 1.957 6.833v16.016h-3.492V47zM234.376 47V31.029c0-1.957-.393-3.421-1.178-4.39-.786-.986-2.006-1.48-3.662-1.48-2.173 0-3.78.666-4.817 1.995-1.038 1.328-1.558 3.375-1.558 6.137V47h-3.493V31.029c0-1.957-.391-3.421-1.177-4.39-.786-.986-2.013-1.48-3.682-1.48-2.189 0-3.795.703-4.817 2.107-1.01 1.388-1.515 3.673-1.515 6.853V47h-3.494V22.45h2.841l.569 3.36h.169a7.076 7.076 0 0 1 2.776-2.8c1.207-.673 2.554-1.009 4.04-1.009 3.603 0 5.961 1.39 7.068 4.166h.17c.687-1.285 1.682-2.3 2.986-3.047 1.305-.746 2.792-1.12 4.462-1.12 2.608 0 4.557.717 5.847 2.15 1.304 1.42 1.957 3.697 1.957 6.833v16.016h-3.492V47zM254.606 47c-3.38 0-6.051-1.085-8.013-3.257-1.948-2.171-2.921-5.186-2.921-9.045 0-3.888.904-6.977 2.712-9.265 1.822-2.29 4.264-3.433 7.325-3.433 2.866 0 5.133.998 6.802 2.994 1.671 1.98 2.505 4.599 2.505 7.856v2.31h-15.755c.069 2.833.745 4.982 2.025 6.45 1.292 1.468 3.109 2.201 5.445 2.201 2.463 0 4.897-.543 7.304-1.628v3.257c-1.225.557-2.386.953-3.485 1.188-1.085.248-2.4.372-3.944.372zm-.939-21.942c-1.837 0-3.304.63-4.404 1.893-1.084 1.261-1.725 3.007-1.919 5.237h11.958c0-2.303-.488-4.064-1.462-5.281-.973-1.233-2.364-1.849-4.173-1.849zM279.55 22c1.044 0 1.981.089 2.81.27l-.492 3.448c-.973-.224-1.832-.336-2.576-.336-1.902 0-3.533.807-4.892 2.42-1.345 1.613-2.018 3.622-2.018 6.026V47h-3.563V22.448h2.94l.407 4.548h.172c.872-1.598 1.925-2.83 3.155-3.697 1.231-.866 2.582-1.299 4.057-1.299zM295.622 47c-3.294 0-5.849-1.07-7.661-3.212-1.8-2.157-2.699-5.202-2.699-9.134 0-4.034.912-7.152 2.739-9.353 1.841-2.2 4.459-3.301 7.85-3.301 1.092 0 2.186.125 3.28.374 1.092.25 1.951.544 2.573.88l-1.058 3.103a14.937 14.937 0 0 0-2.491-.792c-.9-.22-1.695-.33-2.389-.33-4.622 0-6.935 3.125-6.935 9.375 0 2.964.561 5.238 1.682 6.823 1.135 1.584 2.81 2.377 5.025 2.377 1.896 0 3.841-.433 5.834-1.299v3.236c-1.52.835-3.439 1.253-5.75 1.253zM316.508 47c-3.381 0-6.052-1.085-8.013-3.257-1.947-2.171-2.922-5.186-2.922-9.045 0-3.888.905-6.977 2.713-9.265 1.822-2.29 4.264-3.433 7.325-3.433 2.866 0 5.132.998 6.802 2.994 1.669 1.98 2.504 4.599 2.504 7.856v2.31h-15.754c.07 2.833.744 4.982 2.024 6.45 1.293 1.468 3.109 2.201 5.446 2.201 2.461 0 4.897-.543 7.303-1.628v3.257c-1.225.557-2.385.953-3.484 1.188-1.086.248-2.4.372-3.944.372zm-.939-21.942c-1.836 0-3.305.63-4.403 1.893-1.085 1.261-1.726 3.007-1.92 5.237h11.957c0-2.303-.488-4.064-1.461-5.281-.974-1.233-2.365-1.849-4.173-1.849zM329.036 43.908c0-.955.206-1.676.621-2.161.426-.499 1.034-.749 1.82-.749.801 0 1.422.25 1.863.749.456.485.683 1.206.683 2.161 0 .927-.227 1.641-.683 2.14-.455.499-1.075.749-1.863.749-.704 0-1.289-.222-1.758-.664-.456-.457-.683-1.198-.683-2.225zM338.077 55.702c-1.309 0-2.372-.179-3.187-.535v-2.888c.953.285 1.89.428 2.814.428 1.077 0 1.863-.307 2.359-.92.511-.6.766-1.52.766-2.76v-27.3h3.436V48.77c.001 4.621-2.062 6.932-6.188 6.932zm2.463-40.329c0-.813.192-1.405.58-1.776.386-.385.868-.578 1.448-.578.551 0 1.027.192 1.429.578.399.385.599.977.599 1.776s-.2 1.398-.599 1.797a1.993 1.993 0 0 1-1.429.578c-.58 0-1.062-.192-1.448-.578-.387-.399-.58-.998-.58-1.797zM366.508 39.98c0 2.245-.805 3.976-2.412 5.194-1.609 1.218-3.865 1.826-6.773 1.826-3.075 0-5.473-.505-7.195-1.518v-3.39a17.08 17.08 0 0 0 3.577 1.387c1.284.337 2.518.506 3.703.506 1.834 0 3.245-.3 4.232-.902.988-.617 1.481-1.548 1.481-2.796 0-.938-.394-1.737-1.184-2.398-.777-.674-2.3-1.468-4.571-2.378-2.158-.835-3.697-1.562-4.613-2.178-.903-.63-1.581-1.343-2.032-2.135-.437-.792-.656-1.737-.656-2.838 0-1.966.768-3.514 2.307-4.643 1.538-1.145 3.647-1.717 6.326-1.717 2.497 0 4.938.529 7.322 1.585l-1.248 2.97c-2.329-.997-4.437-1.496-6.328-1.496-1.665 0-2.92.272-3.768.815-.845.542-1.268 1.29-1.268 2.244 0 .645.155 1.197.465 1.651.325.454.84.887 1.545 1.298.707.41 2.061 1.006 4.064 1.783 2.751 1.042 4.605 2.09 5.566 3.147.973 1.056 1.46 2.384 1.46 3.984zM51.928.756a2.44 2.44 0 0 1 3.531 0l33.694 34.842a2.645 2.645 0 0 1 0 3.652l-3.08 3.185L48.848 3.942l3.08-3.186zM59.013 22.283L38.496 1.077a2.44 2.44 0 0 0-3.532.001L1.698 35.493a2.644 2.644 0 0 0 .002 3.652l18.752 19.381a2.44 2.44 0 0 0 3.53.001L45.388 36.44l21.468 22.1a2.439 2.439 0 0 0 3.521.002L82.1 46.511 59.013 22.283zM28.904 36.956c-3.862 0-6.868-3.252-6.868-7.101 0-3.852 3.006-7.102 6.868-7.102 3.863 0 6.869 3.251 6.869 7.102-.002 3.85-3.008 7.1-6.869 7.1z" fill="currentColor"></path><path d="M31.367 30.469c-.007-.333-.138-.632-.392-.895-.19-.197-.396-.312-.615-.346a1.375 1.375 0 0 0-.638.04c-.2.06-.454.159-.76.295-.28.13-.495.222-.643.275-.149.047-.28.065-.392.055a.524.524 0 0 1-.31-.17.564.564 0 0 1-.174-.47c.02-.174.058-.36.38-.694l.642-.663-.426-.44-.47.487c-.023.01-.04.008-.053-.005l-.354-.385a.064.064 0 0 0-.058-.02.063.063 0 0 0-.058.02l-.378.39a.09.09 0 0 0-.024.065c0 .02.008.038.024.055l.368.36c.012.014.014.032.004.055-.22.307-.325.62-.32.941.01.317.138.602.383.855.19.197.396.316.614.355.217.037.43.023.639-.04.21-.063.464-.163.764-.3a7.39 7.39 0 0 1 .634-.245.892.892 0 0 1 .397-.06c.113.01.215.061.305.155a.608.608 0 0 1 .178.485.932.932 0 0 1-.275.598l-.935.932.404.45.642-.599c.023-.01.04-.008.053.006l.32.34a.074.074 0 0 0 .053.025.085.085 0 0 0 .063-.025l.378-.39a.07.07 0 0 0 .019-.06.072.072 0 0 0-.02-.061l-.323-.325c-.013-.013-.015-.032-.005-.056.246-.327.366-.657.359-.99z" fill="currentColor"></path></svg>